<svg width="512" height="512" viewBox="0 0 512 512" fill="none" xmlns="http://www.w3.org/2000/svg">
  <rect width="512" height="512" rx="128" fill="#1a1a2e"/>
  <path d="M320 256c0 70.7-57.3 128-128 128-20.9 0-40.6-5-58-13.9 85.8-5.8 154-76.6 154-163.1 0-39.5-14-75.8-37.3-104.1C310.5 120.2 320 156.5 320 196c0 20.9-5 40.6-13.9 58 8.9 17.4 13.9 37.1 13.9 58z" fill="#f5f5dc"/>
  <circle cx="340" cy="140" r="8" fill="#f5f5dc" opacity="0.8"/>
  <circle cx="380" cy="180" r="5" fill="#f5f5dc" opacity="0.6"/>
  <circle cx="400" cy="120" r="6" fill="#f5f5dc" opacity="0.7"/>
  <circle cx="360" cy="100" r="4" fill="#f5f5dc" opacity="0.5"/>
</svg>